ply
format ascii 1.0
element vertex 19
property float32 x
property float32 y
property float32 z
end_header

 0.01042896433 0.06584588937 0.0
 0.02060113295 0.06340376775 0.0
 0.03026603331 0.05940043494 0.0
 0.03918568348 0.05393446629 0.0
 0.04714045207 0.04714045207 0.0
 0.05393446629 0.03918568348 0.0
 0.05940043494 0.03026603331 0.0
 0.06340376775 0.02060113295 0.0
 0.06584588937 0.01042896433 0.0
 0.06666666666 0.0 0.0
 0.06584588937 -0.01042896433 0.0
 0.06340376775 -0.02060113295 0.0
 0.05940043494 -0.03026603331 0.0
 0.05393446629 -0.03918568348 0.0
 0.04714045207 -0.04714045207 0.0
 0.03918568348 -0.05393446629 0.0
 0.03026603331 -0.05940043494 0.0
 0.02060113295 -0.06340376775 0.0
 0.01042896433 -0.06584588937 0.0






